<?xml version="1.0" encoding="UTF-8" standalone="no"?>
<svg
   xmlns:dc="http://purl.org/dc/elements/1.1/"
   xmlns:cc="http://creativecommons.org/ns#"
   xmlns:rdf="http://www.w3.org/1999/02/22-rdf-syntax-ns#"
   xmlns:svg="http://www.w3.org/2000/svg"
   xmlns="http://www.w3.org/2000/svg"
   xmlns:sodipodi="http://sodipodi.sourceforge.net/DTD/sodipodi-0.dtd"
   xmlns:inkscape="http://www.inkscape.org/namespaces/inkscape"
   viewBox="0 0 6353.28 4121.54"
   version="1.1"
   id="svg84"
   sodipodi:docname="coder-vs-comms.svg"
   inkscape:version="1.0.1 (3bc2e813f5, 2020-09-07)">
  <metadata
     id="metadata88">
    <rdf:RDF>
      <cc:Work
         rdf:about="">
        <dc:format>image/svg+xml</dc:format>
        <dc:type
           rdf:resource="http://purl.org/dc/dcmitype/StillImage" />
      </cc:Work>
    </rdf:RDF>
  </metadata>
  <sodipodi:namedview
     pagecolor="#ffffff"
     bordercolor="#666666"
     borderopacity="1"
     objecttolerance="10"
     gridtolerance="10"
     guidetolerance="10"
     inkscape:pageopacity="0"
     inkscape:pageshadow="2"
     inkscape:window-width="1920"
     inkscape:window-height="1001"
     id="namedview86"
     showgrid="false"
     inkscape:zoom="0.071198948"
     inkscape:cx="5862.5737"
     inkscape:cy="787.08024"
     inkscape:window-x="-9"
     inkscape:window-y="-9"
     inkscape:window-maximized="1"
     inkscape:current-layer="svg84" />
  <defs
     id="defs9">
    <style
       id="style2">.a2217882-0ee9-4450-a499-57e4661473c6{fill:#e7f7ff;}.ae8ad1d1-8ad7-4271-8dce-8e98dae64edb{fill:#f7ceaa;}.ebb0781d-a3b0-455c-88f6-e29dbf73f0aa{fill:#68bc6a;}.b9f792fd-90a7-4da0-bbc9-68a752696e7f{fill:#60b4e2;}.f23451c2-4d7d-40ba-97c3-fe88532f4ab7{fill:#dbdbdb;}.b5ba0554-9e90-4fec-9b05-8faea308f729{fill:#a8805d;}.a3a4b615-b69e-47e5-86dc-8ae4f8d6ac8a{fill:#6d5941;}.a15c95f4-d9d1-4e92-aa92-033682432769{fill:#d3d3d3;}.ae580034-e047-4370-a185-b9a0f71b8130{fill:#999;}.fd83fd22-e9ec-424b-8fcc-3ca94ca49b4e{fill:#86c486;}.affed79f-d412-44a7-b791-218ed5495b9e{fill:url(#acd9478e-716d-4ecd-9ad3-5e6502b3e13b);}.ef250565-362b-4b03-af94-8a9e9413f8b1{fill:#434344;}.b9d506e1-373a-42c5-a34c-3ee10747c2bf{fill:#eae5e6;}.aff54cc0-a2a0-4829-92cf-49b68a7c0b19{fill:#e08d28;}</style>
    <linearGradient
       id="acd9478e-716d-4ecd-9ad3-5e6502b3e13b"
       x1="6732.57"
       y1="2311.64"
       x2="10032.03"
       y2="2311.64"
       gradientTransform="matrix(-1,0,0,1,11554.93,0)"
       gradientUnits="userSpaceOnUse">
      <stop
         offset="0"
         stop-color="#86c486"
         id="stop4" />
      <stop
         offset="1"
         stop-color="#92cddd"
         id="stop6" />
    </linearGradient>
  </defs>
  <title
     id="title11">$x2Artboard 2</title>
  <path
     class="a2217882-0ee9-4450-a499-57e4661473c6"
     d="m 1140,2258.37 c 185,405.33 435.59,777.41 747.22,1003.56 352.39,255.72 720.24,191.17 1108.26,-7.94 253.59,-130.12 502.2,-292.07 760.22,-398.62 154.95,-64 309.57,-106.35 468,-126.63 172.48,-22.09 332,29.28 497.43,64.18 220.41,46.5 407,-69.39 505.93,-369.82 92.76,-281.69 128.69,-652.67 78.09,-938 -53.14,-299.66 -242.54,-439.16 -445.51,-524.36 -462.56,-194.14 -1004.4,-225.59 -1483.92,46.22 -268.28,152.06 -553.49,227.91 -834.77,239.79 -368.92,15.59 -706.25,-212 -1073.13,-173.29 -92,9.7 -187,41.64 -264.4,118.72 -98.9,98.51 -157.51,261.71 -173,422.4 -21.87,226.33 26.29,461.27 109.58,643.79 z"
     id="path13" />
  <rect
     class="ae8ad1d1-8ad7-4271-8dce-8e98dae64edb"
     x="4233.8501"
     y="1463.87"
     width="242.58"
     height="194.06"
     id="rect15" />
  <path
     class="ebb0781d-a3b0-455c-88f6-e29dbf73f0aa"
     d="m 3887.92,2318 934.44,818.52 V 1802.69 c 0,-117.44 -95.21,-212.64 -212.65,-212.64 h -509.14 c -117.44,0 -212.65,95.2 -212.65,212.64 z"
     id="path17"
     style="fill:#177784;fill-opacity:1" />
  <ellipse
     class="ae8ad1d1-8ad7-4271-8dce-8e98dae64edb"
     cx="4355.1401"
     cy="1190.7"
     rx="323.67001"
     ry="346.38"
     id="ellipse19" />
  <path
     class="ae8ad1d1-8ad7-4271-8dce-8e98dae64edb"
     d="m 4233.85,1589.51 c 0,0 114.62,43.57 242.58,0 v -77.58 h -242.58 z"
     id="path21" />
  <ellipse
     class="ae8ad1d1-8ad7-4271-8dce-8e98dae64edb"
     cx="1998.38"
     cy="1190.7"
     rx="323.67001"
     ry="346.38"
     id="ellipse23" />
  <rect
     class="ae8ad1d1-8ad7-4271-8dce-8e98dae64edb"
     x="1877.09"
     y="1463.87"
     width="242.58"
     height="194.06"
     id="rect25" />
  <path
     class="b9f792fd-90a7-4da0-bbc9-68a752696e7f"
     d="m 2457.34,2317.71 -934.43,818.8 V 1802.69 c 0,-117.44 95.2,-212.64 212.64,-212.64 h 509.15 c 117.44,0 212.64,95.2 212.64,212.64 z"
     id="path27"
     style="fill:#df1465;fill-opacity:1" />
  <path
     class="f23451c2-4d7d-40ba-97c3-fe88532f4ab7"
     d="m 1310.22,673.49 c 41.07,-48.7 65.69,-82.86 65.69,-82.86 l -27.64,-23.58 -26.47,-22.57 c 0,0 -31,28.69 -72.64,76.93 z"
     id="path29" />
  <path
     class="b5ba0554-9e90-4fec-9b05-8faea308f729"
     d="m 1236.26,636.39 c -134.93,156.89 -385.61,456 -357,480.48 28.61,24.48 284.52,-270.28 418.16,-428.27 z"
     id="path31"
     style="fill:#7e4795;fill-opacity:1" />
  <path
     class="a3a4b615-b69e-47e5-86dc-8ae4f8d6ac8a"
     d="m 1387.5,573.41 c 0,0 87.5,-4.84 89.79,-81.41 2.29,-76.57 4.43,-84.06 32.37,-95.78 0,0 -172.33,-23.23 -172.63,134.56 -0.03,0 30.28,29.89 50.47,42.63 z"
     id="path33" />
  <circle
     class="ae8ad1d1-8ad7-4271-8dce-8e98dae64edb"
     cx="1135.9399"
     cy="877.34998"
     r="105.11"
     id="circle35" />
  <path
     class="b9f792fd-90a7-4da0-bbc9-68a752696e7f"
     d="m 1735.55,1590.05 c 0,0 -250.13,-103.27 -472.72,-700.31 l -197.27,93.47 c 0,0 464.27,1009.35 457.18,1308.07"
     id="path37"
     style="fill:#df1465;fill-opacity:1" />
  <path
     class="ae8ad1d1-8ad7-4271-8dce-8e98dae64edb"
     d="m 1877.09,1589.51 c 0,0 114.61,43.57 242.58,0 v -77.58 h -242.58 z"
     id="path39" />
  <rect
     class="a15c95f4-d9d1-4e92-aa92-033682432769"
     x="2395.7"
     y="1054.9"
     width="578.88"
     height="303.04001"
     rx="105.69"
     id="rect41" />
  <circle
     class="ae580034-e047-4370-a185-b9a0f71b8130"
     cx="2685.1399"
     cy="1206.42"
     r="35.139999"
     id="circle43" />
  <circle
     class="ae580034-e047-4370-a185-b9a0f71b8130"
     cx="2539.3899"
     cy="1206.42"
     r="35.139999"
     id="circle45" />
  <circle
     class="ae580034-e047-4370-a185-b9a0f71b8130"
     cx="2830.8799"
     cy="1206.42"
     r="35.139999"
     id="circle47" />
  <path
     class="a15c95f4-d9d1-4e92-aa92-033682432769"
     d="m 2395.7,1215.81 c 0,0 4.76,127.07 -38.8,136.59 0,0 70.71,0 94.28,-31.43 23.57,-31.43 26.18,-98.2 26.18,-98.2 z"
     id="path49" />
  <rect
     class="a15c95f4-d9d1-4e92-aa92-033682432769"
     x="-3956.6799"
     y="-1357.9399"
     width="578.88"
     height="303.04001"
     rx="105.69"
     transform="scale(-1)"
     id="rect51" />
  <path
     class="a15c95f4-d9d1-4e92-aa92-033682432769"
     d="m 3956.68,1215.81 c 0,0 -4.76,127.07 38.8,136.59 0,0 -70.71,0 -94.28,-31.43 -23.57,-31.43 -26.19,-98.2 -26.19,-98.2 z"
     id="path53" />
  <path
     class="ae580034-e047-4370-a185-b9a0f71b8130"
     d="m 3583.86,1261.51 -101,-41.9 v -26.36 l 101,-42 v 31.55 l -61.38,23.65 61.38,23.67 z"
     id="path55" />
  <path
     class="ae580034-e047-4370-a185-b9a0f71b8130"
     d="m 3677.34,1107.63 h 27.09 l -48,197.58 h -26.82 z"
     id="path57" />
  <path
     class="ae580034-e047-4370-a185-b9a0f71b8130"
     d="m 3750.63,1230.15 61.37,-23.67 -61.37,-23.65 v -31.55 l 101,42 v 26.36 l -101,41.9 z"
     id="path59" />
  <path
     class="fd83fd22-e9ec-424b-8fcc-3ca94ca49b4e"
     d="m 3172.47,1486.78 c -911.12,0 -1649.73,738.61 -1649.73,1649.73 h 562.62 c 0,-600.4 486.71,-1087.12 1087.11,-1087.12 600.4,0 1087.12,486.72 1087.12,1087.12 h 562.61 c 0,-911.12 -738.61,-1649.73 -1649.73,-1649.73 z"
     id="path61" />
  <path
     class="affed79f-d412-44a7-b791-218ed5495b9e"
     d="m 3172.63,1486.78 c 911.12,0 1649.73,738.61 1649.73,1649.73 h -562.61 c 0,-600.4 -486.72,-1087.12 -1087.12,-1087.12 -600.4,0 -1087.11,486.72 -1087.11,1087.12 h -562.61 c 0,-911.12 738.6,-1649.73 1649.72,-1649.73 z"
     id="path63"
     style="fill:#f08319;fill-opacity:1" />
  <path
     class="ef250565-362b-4b03-af94-8a9e9413f8b1"
     d="m 1857.1,2040.77 3.81,3.16 -3.82,-3.14 L 3215,3273.64 c 0,0 54.74,-0.19 87.16,-39.44 33.26,-40.28 22.25,-93 22.25,-93 z"
     id="path65"
     style="fill:#660080" />
  <circle
     class="ef250565-362b-4b03-af94-8a9e9413f8b1"
     cx="3172.47"
     cy="3136.51"
     r="108.28"
     id="circle67" />
  <circle
     class="b9d506e1-373a-42c5-a34c-3ee10747c2bf"
     cx="3172.47"
     cy="3136.51"
     r="53.43"
     id="circle69" />
  <rect
     class="aff54cc0-a2a0-4829-92cf-49b68a7c0b19"
     x="728.56836"
     y="5562.8662"
     width="115.65"
     height="413.45999"
     rx="12"
     transform="rotate(-53.02)"
     id="rect71"
     style="fill:#7e4795;fill-opacity:1" />
  <rect
     class="f23451c2-4d7d-40ba-97c3-fe88532f4ab7"
     x="761.11945"
     y="5150.8706"
     width="50.759998"
     height="412.01001"
     transform="rotate(-53.02)"
     id="rect73" />
  <rect
     class="f23451c2-4d7d-40ba-97c3-fe88532f4ab7"
     x="744.9248"
     y="5019.7285"
     width="82.470001"
     height="119.23"
     transform="rotate(-53.02)"
     id="rect75" />
  <polygon
     class="f23451c2-4d7d-40ba-97c3-fe88532f4ab7"
     points="4584.09,2499.26 4599.15,2479.27 4614.21,2459.27 4603.07,2430.6 4578.27,2463.54 4553.46,2496.48 "
     id="polygon77" />
  <circle
     class="ae8ad1d1-8ad7-4271-8dce-8e98dae64edb"
     cx="5126.77"
     cy="2764.54"
     r="105.11"
     id="circle79" />
  <path
     class="ebb0781d-a3b0-455c-88f6-e29dbf73f0aa"
     d="m 4576.69,1787.52 c 0,0 246.71,345.28 422.39,974 l 197.27,-93.47 c 0,0 -238.62,-1102.12 -586.64,-1078"
     id="path81"
     style="fill:#177784;fill-opacity:1" />
</svg>
